<svg xmlns="http://www.w3.org/2000/svg" viewBox="0 0 110.88 18.6"><defs><style>.cls-1{fill:#fff;}</style></defs><title>logo-text</title><g id="Layer_2" data-name="Layer 2"><g id="Layer_1-2" data-name="Layer 1"><path class="cls-1" d="M5.63,3.94a6.3,6.3,0,0,1,5.09,2.21v.22L9.17,7.71H9A4.51,4.51,0,0,0,7.48,6.62a4.4,4.4,0,0,0-1.79-.39c-1.36,0-2.08.65-2.08,1.51s.86,1.37,2.39,2c2.14.81,5.21,1.7,5.21,4.7,0,2.65-2.39,4.16-5.4,4.16A7.34,7.34,0,0,1,0,16v-.22L1.56,14.4h.22a4.87,4.87,0,0,0,1.69,1.4,4.72,4.72,0,0,0,2.12.5c1.51,0,2.53-.73,2.53-1.79,0-1.28-1.42-1.76-3.11-2.4C2.87,11.33.59,10.46.59,7.94.58,5.59,2.58,3.94,5.63,3.94Z"/><path class="cls-1" d="M16.79,7l2.28,6.76,3.09-9.48H24.3l3.09,9.48,3.19-9.48h2.87l.11.19-5.09,13.8h-2L23.21,8.5,20,18.26H18l-3.68-10c-.47-1.29-.83-1.59-1.25-1.62a.74.74,0,0,0-.36,0,.87.87,0,0,0-.33.17l-.2-.09L11.7,4.59l.11-.23a3.16,3.16,0,0,1,1.62-.42C15.18,3.94,16.23,5.17,16.79,7Z"/><path class="cls-1" d="M37.56,12.07a4.47,4.47,0,0,0,4.73,4.08,5.92,5.92,0,0,0,4.45-1.87h.2l1.58,1.43v.22a8.07,8.07,0,0,1-6.28,2.66c-4,0-7.68-2.58-7.68-7.27a7.06,7.06,0,0,1,7.29-7.38A6.88,6.88,0,0,1,49,11.06a5.73,5.73,0,0,1-.08,1Zm0-2H46a3.94,3.94,0,0,0-4.15-3.8,4.1,4.1,0,0,0-4.31,3.81Z"/><path class="cls-1" d="M65.18,9.84v8.42h-3V10.09a3.19,3.19,0,0,0-3.33-3.52,3.32,3.32,0,0,0-3.51,3.52v8.17H52.25V7.83c0-.76-.11-1.23-.64-1.23a.68.68,0,0,0-.45.17L51,6.68l-.45-2.07.11-.19a3,3,0,0,1,1.73-.48,2.43,2.43,0,0,1,2.5,1.76,6.29,6.29,0,0,1,4.53-1.76A5.51,5.51,0,0,1,65.18,9.84Z"/><path class="cls-1" d="M70.85,12.07a4.47,4.47,0,0,0,4.73,4.08A5.92,5.92,0,0,0,80,14.28h.2l1.58,1.43v.22a8.07,8.07,0,0,1-6.28,2.66c-4,0-7.68-2.58-7.68-7.27a7.06,7.06,0,0,1,7.29-7.38,6.88,6.88,0,0,1,7.17,7.13,4.86,4.86,0,0,1-.08,1Zm0-2h8.46a3.94,3.94,0,0,0-4.15-3.8,4.11,4.11,0,0,0-4.31,3.81Z"/><path class="cls-1" d="M84.84,17.28a1.31,1.31,0,0,1,.23-.72,1.22,1.22,0,0,1,.58-.47,1.25,1.25,0,0,1,.74-.08,1.38,1.38,0,0,1,.66.36,1.3,1.3,0,0,1,.36.66,1.37,1.37,0,0,1-.07.75,1.31,1.31,0,0,1-.48.59,1.27,1.27,0,0,1-.71.22,1.31,1.31,0,0,1-1.31-1.31Z"/><path class="cls-1" d="M90.69,1.31a1.28,1.28,0,0,1,.22-.73A1.3,1.3,0,0,1,91.49.1,1.23,1.23,0,0,1,92.25,0a1.36,1.36,0,0,1,.67.35,1.35,1.35,0,0,1,.35.68,1.32,1.32,0,0,1-.07.76,1.38,1.38,0,0,1-.48.59,1.36,1.36,0,0,1-.73.22,1.29,1.29,0,0,1-.92-.39A1.28,1.28,0,0,1,90.69,1.31Zm2,17v-14H91.3v14Z"/><path class="cls-1" d="M110.88,11.27a7.37,7.37,0,0,1-14.74,0,7.37,7.37,0,0,1,14.74,0Zm-1.42,0a6,6,0,1,0-11.9,0,6,6,0,1,0,11.9,0Z"/></g></g></svg>